<?xml version="1.0" standalone="no"?>
<!DOCTYPE svg PUBLIC "-//W3C//DTD SVG 20010904//EN"
 "http://www.w3.org/TR/2001/REC-SVG-20010904/DTD/svg10.dtd">
<svg version="1.0" xmlns="http://www.w3.org/2000/svg"
 width="796.000000pt" height="220.000000pt" viewBox="0 0 796.000000 220.000000"
 preserveAspectRatio="xMidYMid meet">

<g transform="translate(0.000000,220.000000) scale(0.100000,-0.100000)"
fill="#000000" stroke="none">
<path d="M6970 2144 c-63 -25 -157 -61 -207 -80 l-93 -36 0 -84 c0 -99 19 -92
-178 -64 l-140 21 -178 -68 -179 -68 -3 -68 c-2 -40 -7 -67 -14 -67 -6 0 -50
5 -97 12 l-87 11 -142 -54 -142 -54 0 -49 c0 -45 -1 -48 -22 -43 -13 4 -52 9
-88 12 -60 6 -74 3 -180 -38 l-115 -44 -3 -372 -2 -371 1430 0 1430 0 -2 718
-3 717 -405 57 c-223 31 -418 56 -435 56 -16 0 -82 -20 -145 -44z m535 -94
c165 -22 315 -43 333 -46 l32 -6 0 -634 0 -634 -360 0 -360 0 0 686 0 686 28
-6 c15 -3 162 -24 327 -46z m-445 -645 l0 -675 -155 0 -155 0 0 619 0 618 143
56 c78 30 148 56 155 56 9 1 12 -140 12 -674z m-402 365 c9 0 12 -111 12 -520
l0 -520 -135 0 -135 0 0 538 0 539 123 -18 c67 -10 128 -19 135 -19z m-348
-510 l0 -530 -115 0 -115 0 0 488 0 489 108 41 c59 22 110 41 115 41 4 1 7
-237 7 -529z m-362 285 l42 -7 0 -404 0 -404 -75 0 -75 0 0 416 0 416 33 -5
c17 -3 51 -9 75 -12z m-198 -410 l0 -405 -80 0 -80 0 2 377 3 377 65 27 c36
15 71 28 78 28 9 1 12 -86 12 -404z m-252 230 c9 -3 12 -76 12 -320 l0 -315
-60 0 -60 0 0 326 0 325 48 -6 c26 -4 53 -8 60 -10z m-188 -320 l0 -315 -60 0
-60 0 0 298 0 298 43 16 c84 31 77 57 77 -297z"/>
<path d="M1560 825 l0 -185 35 0 35 0 0 185 0 185 -35 0 -35 0 0 -185z"/>
<path d="M1707 1003 c-4 -3 -7 -19 -7 -35 0 -25 3 -28 35 -28 33 0 35 2 35 35
0 32 -3 35 -28 35 -16 0 -32 -3 -35 -7z"/>
<path d="M3070 939 l0 -70 -22 15 c-26 18 -80 21 -109 6 -35 -19 -51 -67 -47
-137 3 -53 9 -68 31 -91 22 -22 36 -27 72 -26 24 0 51 7 60 14 10 8 15 9 15 1
0 -6 16 -11 35 -11 l35 0 0 185 0 185 -35 0 -35 0 0 -71z m-20 -116 c38 -48
15 -133 -36 -133 -50 0 -75 99 -34 140 27 27 44 25 70 -7z"/>
<path d="M4430 825 l0 -185 40 0 40 0 0 185 0 185 -40 0 -40 0 0 -185z"/>
<path d="M4577 1003 c-4 -3 -7 -19 -7 -35 0 -25 3 -28 35 -28 33 0 35 2 35 35
0 32 -3 35 -28 35 -16 0 -32 -3 -35 -7z"/>
<path d="M7 983 c-4 -3 -7 -17 -7 -30 0 -21 4 -23 50 -23 l50 0 0 -145 0 -145
35 0 35 0 0 145 0 145 50 0 c49 0 50 1 50 30 l0 30 -128 0 c-71 0 -132 -3
-135 -7z"/>
<path d="M310 858 c0 -143 7 -167 53 -202 33 -24 116 -28 165 -7 53 22 62 52
62 206 l0 136 -32 -3 -33 -3 -5 -126 c-4 -106 -8 -130 -24 -148 -24 -26 -57
-27 -87 -2 -23 18 -24 27 -27 150 l-4 131 -34 0 -34 0 0 -132z"/>
<path d="M807 983 c-4 -3 -7 -82 -7 -175 l0 -168 80 0 c46 0 95 6 114 14 68
29 71 133 4 159 -9 3 -6 10 9 21 51 38 35 122 -27 143 -38 13 -162 17 -173 6z
m137 -59 c21 -8 21 -60 0 -68 -9 -3 -27 -6 -40 -6 -21 0 -24 4 -24 40 0 36 3
40 24 40 13 0 31 -3 40 -6z m15 -143 c7 -5 14 -21 14 -36 0 -33 -17 -45 -60
-45 -32 0 -33 1 -33 45 0 44 1 45 33 45 17 0 38 -4 46 -9z"/>
<path d="M2557 983 c-13 -12 -7 -257 6 -282 23 -45 63 -66 125 -66 123 0 154
51 150 240 l-3 110 -35 0 -35 0 -5 -127 c-5 -136 -17 -168 -61 -168 -61 0 -79
43 -79 191 l0 109 -28 0 c-16 0 -32 -3 -35 -7z"/>
<path d="M3210 815 l0 -175 35 0 34 0 3 77 3 76 59 -76 c57 -75 59 -77 102
-77 24 0 44 3 44 6 0 3 -32 44 -70 90 l-70 86 65 76 c36 41 65 79 65 84 0 4
-17 8 -38 8 -35 0 -43 -6 -98 -72 l-59 -73 -3 73 -3 72 -34 0 -35 0 0 -175z"/>
<path d="M3677 983 c-4 -3 -7 -82 -7 -175 l0 -168 79 0 c97 0 137 13 157 52
21 40 11 94 -19 109 -12 7 -23 13 -25 14 -2 2 8 14 22 28 44 44 27 113 -34
134 -38 13 -162 17 -173 6z m139 -61 c37 -25 14 -72 -37 -72 -27 0 -29 2 -29
40 0 37 2 40 28 40 15 0 32 -4 38 -8z m10 -140 c6 -4 14 -17 18 -28 9 -30 -17
-54 -60 -54 -34 0 -34 0 -34 45 0 44 1 45 33 45 17 0 37 -4 43 -8z"/>
<path d="M1139 885 c-28 -15 -59 -78 -59 -121 0 -39 26 -91 56 -110 32 -21
117 -24 152 -6 28 16 33 69 5 56 -40 -17 -104 -16 -124 1 -39 36 -25 45 67 45
l87 0 -6 47 c-7 64 -49 103 -110 103 -23 -1 -54 -7 -68 -15z m109 -62 c14 -23
14 -23 -42 -23 -61 0 -65 4 -39 32 22 24 61 20 81 -9z"/>
<path d="M1377 893 c-4 -3 -7 -62 -7 -130 l0 -123 35 0 35 0 0 64 c0 74 15
126 38 127 10 1 24 2 32 3 9 0 16 13 18 34 3 30 1 32 -26 32 -16 0 -35 -7 -43
-16 -11 -14 -13 -14 -21 0 -9 16 -49 22 -61 9z"/>
<path d="M1707 893 c-4 -3 -7 -62 -7 -130 l0 -123 35 0 35 0 0 130 0 130 -28
0 c-16 0 -32 -3 -35 -7z"/>
<path d="M1840 770 l0 -130 35 0 35 0 0 85 c0 72 3 88 20 105 11 11 26 20 33
20 29 0 37 -25 37 -117 l0 -93 35 0 35 0 0 105 c0 99 -2 107 -25 130 -29 29
-88 34 -123 9 -20 -14 -22 -14 -22 0 0 11 -10 16 -30 16 l-30 0 0 -130z"/>
<path d="M4009 885 c-28 -15 -59 -78 -59 -121 0 -39 26 -91 56 -110 32 -21
117 -24 152 -6 28 16 33 69 5 56 -40 -17 -104 -16 -124 1 -39 36 -25 45 67 45
l87 0 -6 47 c-7 64 -49 103 -110 103 -23 -1 -54 -7 -68 -15z m109 -62 c14 -23
14 -23 -42 -23 -61 0 -65 4 -39 32 22 24 61 20 81 -9z"/>
<path d="M4247 893 c-4 -3 -7 -62 -7 -130 l0 -123 34 0 33 0 5 81 c5 86 18
111 60 113 18 1 24 7 26 34 3 30 1 32 -26 32 -16 0 -35 -7 -43 -16 -11 -14
-13 -14 -21 0 -9 16 -49 22 -61 9z"/>
<path d="M4577 893 c-4 -3 -7 -62 -7 -130 l0 -123 35 0 35 0 0 130 0 130 -28
0 c-16 0 -32 -3 -35 -7z"/>
<path d="M4710 770 l0 -130 35 0 35 0 0 85 c0 72 3 88 20 105 11 11 26 20 33
20 29 0 37 -25 37 -117 l0 -93 35 0 35 0 0 105 c0 99 -2 107 -25 130 -29 29
-88 34 -123 9 -20 -14 -22 -14 -22 0 0 11 -10 16 -30 16 l-30 0 0 -130z"/>
<path d="M2277 814 c-4 -4 -7 -20 -7 -36 0 -26 3 -28 41 -28 39 0 40 1 37 33
-3 28 -7 32 -33 35 -17 2 -34 0 -38 -4z"/>
<path d="M2980 505 c0 -34 1 -35 40 -35 39 0 40 1 40 35 0 34 -1 35 -40 35
-39 0 -40 -1 -40 -35z"/>
<path d="M3110 505 c0 -33 2 -35 35 -35 33 0 35 2 35 35 0 33 -2 35 -35 35
-33 0 -35 -2 -35 -35z"/>
<path d="M2203 430 c-51 -16 -83 -63 -83 -121 0 -62 23 -88 109 -125 79 -34
93 -76 35 -103 -31 -14 -50 -13 -96 3 l-36 13 -5 -36 c-5 -42 1 -47 59 -56
116 -17 204 36 204 125 0 57 -24 86 -105 124 -62 30 -75 40 -75 59 0 48 48 68
117 48 30 -9 31 -8 35 26 2 19 1 36 -3 39 -17 10 -126 13 -156 4z"/>
<path d="M3684 421 c-33 -15 -45 -28 -59 -64 -14 -37 -15 -51 -6 -80 15 -43
27 -54 104 -92 74 -36 88 -56 63 -84 -25 -28 -66 -34 -114 -18 l-40 14 -7 -35
c-8 -41 0 -47 63 -57 204 -31 281 178 92 251 -61 23 -70 32 -70 65 0 45 44 58
130 38 11 -3 16 6 18 32 3 35 2 36 -35 42 -62 11 -96 8 -139 -12z"/>
<path d="M5425 424 c-111 -39 -159 -199 -96 -322 57 -111 225 -134 320 -44 44
42 61 90 61 172 -1 155 -136 247 -285 194z m130 -66 c56 -25 83 -137 51 -211
-30 -71 -97 -95 -156 -55 -44 30 -64 84 -56 153 11 97 84 148 161 113z"/>
<path d="M2 268 c3 -184 13 -213 78 -245 48 -23 144 -23 193 1 63 31 71 58 75
244 l4 162 -45 0 -46 0 -3 -156 -3 -156 -28 -24 c-15 -13 -39 -24 -52 -24 -13
0 -37 11 -52 24 l-28 24 -3 156 -3 156 -46 0 -45 0 4 -162z"/>
<path d="M432 223 l3 -208 42 -3 42 -3 3 146 3 146 75 -146 75 -145 53 0 52 0
0 210 0 210 -40 0 -39 0 -3 -152 -3 -153 -78 153 -78 152 -55 0 -54 0 2 -207z"/>
<path d="M860 220 l0 -210 45 0 45 0 0 210 0 210 -45 0 -45 0 0 -210z"/>
<path d="M1062 228 c38 -112 73 -207 77 -211 5 -5 30 -7 56 -5 l48 3 64 190
c35 105 66 198 69 208 4 14 -1 17 -38 17 l-43 0 -49 -155 c-27 -85 -52 -155
-55 -155 -3 0 -28 70 -55 155 l-50 155 -47 0 -47 0 70 -202z"/>
<path d="M1432 223 l3 -208 123 -3 122 -3 0 36 0 35 -80 0 -80 0 0 55 0 54 73
3 72 3 3 33 3 32 -75 0 -76 0 0 50 0 50 80 0 80 0 0 35 0 35 -125 0 -125 0 2
-207z"/>
<path d="M1760 219 l0 -210 43 3 42 3 3 83 3 83 31 -3 c30 -3 34 -8 63 -83
l31 -80 47 -3 c26 -2 47 -1 47 2 0 15 -73 187 -82 192 -5 3 5 18 22 33 23 19
33 37 36 66 11 90 -42 125 -188 125 l-98 0 0 -211z m185 121 c25 -28 13 -65
-26 -79 -62 -21 -69 -17 -69 44 l0 55 38 0 c26 0 45 -7 57 -20z"/>
<path d="M2452 223 l3 -208 43 -3 42 -3 0 210 0 211 -45 0 -45 0 2 -207z"/>
<path d="M2582 398 c3 -33 4 -33 60 -36 l58 -3 2 -172 3 -172 43 -3 42 -3 0
175 0 176 60 0 60 0 0 35 0 35 -166 0 -165 0 3 -32z"/>
<path d="M3012 378 c-18 -46 -125 -322 -139 -355 -4 -9 8 -13 40 -13 44 0 45
0 65 50 l21 51 82 -3 81 -3 18 -45 c17 -44 19 -45 65 -48 56 -4 60 -28 -41
228 l-72 185 -50 3 -50 3 -20 -53z m96 -116 c12 -38 22 -71 22 -75 0 -4 -24
-7 -54 -7 l-54 0 26 75 c15 41 29 75 33 75 3 0 15 -31 27 -68z"/>
<path d="M3250 395 l0 -35 60 0 60 0 0 -175 0 -175 45 0 45 0 0 175 0 175 60
0 60 0 0 35 0 35 -165 0 -165 0 0 -35z"/>
<path d="M3960 220 l0 -210 93 1 c50 0 107 5 126 12 73 25 101 119 52 171 -14
14 -31 26 -40 26 -10 0 -4 10 17 29 26 24 32 37 32 71 0 86 -40 110 -185 110
l-95 0 0 -210z m184 121 c34 -37 -4 -81 -70 -81 -22 0 -24 4 -24 50 l0 50 38
0 c26 0 45 -7 56 -19z m-17 -152 c74 -28 47 -109 -37 -109 l-40 0 0 60 c0 57
1 60 24 60 14 0 37 -5 53 -11z"/>
<path d="M4320 219 l0 -210 43 3 42 3 3 208 2 207 -45 0 -45 0 0 -211z"/>
<path d="M4490 220 l0 -210 95 0 c145 0 200 32 200 117 0 38 -5 49 -34 75 -31
27 -32 31 -17 40 10 6 24 25 32 43 11 28 12 41 1 72 -18 57 -58 73 -179 73
l-98 0 0 -210z m184 124 c34 -33 8 -73 -52 -81 l-42 -6 0 52 0 51 39 0 c23 0
46 -7 55 -16z m14 -171 c33 -45 -3 -93 -70 -93 l-38 0 0 61 0 62 48 -7 c26 -3
52 -14 60 -23z"/>
<path d="M4860 220 l0 -211 123 3 122 3 3 33 3 32 -85 0 -86 0 0 175 0 175
-40 0 -40 0 0 -210z"/>
<path d="M5150 219 l0 -210 43 3 42 3 3 208 2 207 -45 0 -45 0 0 -211z"/>
<path d="M5740 395 l0 -35 60 0 60 0 0 -175 0 -175 45 0 45 0 0 175 0 175 60
0 60 0 0 35 0 35 -165 0 -165 0 0 -35z"/>
<path d="M6120 219 l0 -210 43 3 42 3 3 88 3 87 79 0 80 0 0 -91 0 -90 43 3
42 3 3 208 2 207 -45 0 -45 0 0 -85 0 -85 -80 0 -80 0 0 85 0 85 -45 0 -45 0
0 -211z"/>
<path d="M6550 220 l0 -210 125 0 125 0 0 35 0 35 -80 0 -80 0 0 55 0 54 73 3
72 3 3 33 3 32 -75 0 -76 0 0 50 0 50 80 0 80 0 0 35 0 35 -125 0 -125 0 0
-210z"/>
<path d="M6880 220 l0 -210 45 0 44 0 3 92 3 91 70 -91 70 -91 53 -1 c28 0 52
3 52 8 -1 4 -39 54 -85 111 l-84 105 52 59 c29 33 67 77 85 98 l34 39 -54 0
-53 0 -73 -86 -72 -87 0 87 0 86 -45 0 -45 0 0 -210z"/>
<path d="M7280 220 l0 -210 125 0 125 0 0 35 0 35 -80 0 -80 0 0 55 0 54 73 3
72 3 3 33 3 32 -75 0 -76 0 0 50 0 50 80 0 80 0 0 35 0 35 -125 0 -125 0 0
-210z"/>
<path d="M7610 220 l0 -210 40 0 40 0 0 153 0 152 78 -150 78 -150 52 -3 52
-3 0 210 0 211 -40 0 -40 0 -1 -152 0 -153 -77 153 -77 152 -52 0 -53 0 0
-210z"/>
</g>
</svg>
